<svg width="103" height="38" viewBox="0 0 103 38" fill="none" xmlns="http://www.w3.org/2000/svg">
<rect width="103" height="38" rx="19" fill="#4255FF"/>
<rect opacity="0.01" width="20" height="20" transform="matrix(-4.37114e-08 -1 -1 4.37114e-08 87 29)" fill="black"/>
<path d="M77.4783 18.4595L74.6402 21.1719C74.2891 21.5075 74.2829 22.0664 74.6265 22.4097C74.9562 22.739 75.4874 22.7482 75.8283 22.4304L79.0284 19.4465C79.5551 18.9553 79.5589 18.1218 79.0366 17.6259L75.7852 14.5391C75.4662 14.2362 74.9665 14.2339 74.6447 14.534C74.2948 14.8602 74.2914 15.4137 74.6373 15.7442L77.4783 18.4595Z" fill="white"/>
<path d="M30.11 19.8C31.64 21.78 32.81 23.49 33.62 24.96L32.705 25.605C32.465 25.17 32.21 24.72 31.94 24.27C28.46 24.63 25.16 24.9 22.04 25.08L21.845 24.195C23.135 23.49 24.455 21.795 25.805 19.095H20.825V18.045H26.945V15.21H21.77V14.16H26.945V11.775H28.055V14.16H33.2V15.21H28.055V18.045H34.16V19.095H27.005C25.94 21.345 24.86 22.995 23.765 24.06C27.395 23.775 29.945 23.55 31.385 23.37C30.755 22.41 30.035 21.405 29.24 20.355L30.11 19.8ZM38.615 11.73L39.68 11.91C39.545 12.66 39.395 13.365 39.215 14.055H42.575V15.015C42.17 17.64 41.405 19.845 40.265 21.615C40.625 22.17 41 22.59 41.42 22.89C42.59 23.715 44.45 24.135 46.985 24.165C47.765 24.165 48.545 24.135 49.355 24.09L49.145 25.215H47.495C44.405 25.215 42.17 24.69 40.79 23.67C40.37 23.355 39.995 22.95 39.65 22.47C38.72 23.64 37.64 24.6 36.38 25.35L35.795 24.33C37.085 23.58 38.165 22.605 39.02 21.42C38.525 20.475 38.09 19.32 37.715 17.955C37.325 18.66 36.89 19.29 36.44 19.845L35.705 18.93C37.145 17.145 38.105 14.745 38.615 11.73ZM38.345 16.65C38.735 18.195 39.155 19.47 39.635 20.475C40.52 18.96 41.15 17.16 41.51 15.09H38.915C38.735 15.645 38.54 16.17 38.345 16.65ZM44.585 11.82H45.68V15.63C46.91 16.515 48.155 17.535 49.43 18.69L48.785 19.65C47.57 18.42 46.535 17.445 45.68 16.755V22.995H44.585V11.82ZM56.24 12.345H63.575V19.275H60.455V21.045H63.83V22.065H60.455V24.015H64.385V25.05H55.355V24.015H59.375V22.065H55.985V21.045H59.375V19.275H56.24V12.345ZM62.54 18.315V16.29H60.455V18.315H62.54ZM59.375 18.315V16.29H57.275V18.315H59.375ZM57.275 15.345H59.375V13.305H57.275V15.345ZM60.455 13.305V15.345H62.54V13.305H60.455ZM50.945 17.31H52.58V13.755H50.735V12.735H55.52V13.755H53.69V17.31H55.34V18.345H53.69V21.75C54.26 21.555 54.8 21.345 55.34 21.105V22.155C53.96 22.725 52.475 23.205 50.885 23.595L50.615 22.56C51.275 22.44 51.935 22.29 52.58 22.11V18.345H50.945V17.31Z" fill="white"/>
</svg>
